<svg
  width="16"
  height="16"
  viewBox="0 0 16 16"
  xmlns="http://www.w3.org/2000/svg"
>
  <g clip-path="url(#clip0_18_78)">
    <path
      d="M8.55932 14.6903C6.76558 16.4441 3.88147 16.4371 2.09772 14.6658C0.314491 12.8955 0.307464 10.031 2.07373 8.24974L2.07224 8.24871L8.56035 1.80614L9.37175 1.00073C10.7155 -0.333577 12.8938 -0.333577 14.2376 1.00073C15.5814 2.33504 15.5814 4.49824 14.2376 5.83306L7.08556 12.8611L7.08304 12.8591C6.20165 13.703 4.79685 13.697 3.92597 12.8366C3.05509 11.9757 3.04961 10.5879 3.90346 9.71802L3.90095 9.71499L4.69733 8.92912L8.67929 4.99618L9.47516 5.78307L4.69733 10.5019C4.25738 10.9358 4.25738 11.6402 4.69733 12.0747C5.13728 12.5091 5.85065 12.5091 6.29009 12.0747L13.4266 5.02663L13.4246 5.02514L13.4516 5.00212C14.3475 4.11273 14.3475 2.66993 13.4516 1.7806C12.5557 0.891272 11.1039 0.891215 10.208 1.7806L10.184 1.80762L10.1825 1.8066L9.37164 2.61149L2.88313 9.05412C1.53934 10.3884 1.53934 12.5516 2.88313 13.8859C4.22693 15.2202 6.40566 15.2202 7.74843 13.8859L13.4256 8.24871L14.2365 7.44382L15.0474 8.24871L14.2365 9.05412L8.56035 14.6913C8.56035 14.6913 8.55932 14.6903 8.55932 14.6903Z"
    />
  </g>
  <defs>
    <clipPath id="clip0_18_78">
      <rect
        width="16"
        height="16"
        fill="white"
      />
    </clipPath>
  </defs>
</svg>