<svg width="24" height="24" viewBox="0 0 24 24" fill="none" xmlns="http://www.w3.org/2000/svg">
<path d="M12.7559 20.3629C10.5137 22.5551 6.90854 22.5464 4.67886 20.3323C2.44981 18.1195 2.44103 14.5387 4.64886 12.3122L4.64701 12.3109L12.7571 4.25768L13.7714 3.25092C15.4511 1.58303 18.1739 1.58303 19.8537 3.25092C21.5334 4.91881 21.5334 7.62281 19.8537 9.29134L10.9137 18.0764L10.9105 18.0739C9.80878 19.1287 8.05277 19.1212 6.96417 18.0458C5.87557 16.9697 5.86872 15.2349 6.93603 14.1475L6.93289 14.1438L7.92837 13.1614L12.9058 8.24523L13.9007 9.22885L7.92837 15.1274C7.37843 15.6698 7.37843 16.5503 7.92837 17.0933C8.47831 17.6364 9.37003 17.6364 9.91932 17.0933L18.8399 8.28329L18.8374 8.28143L18.8712 8.25266C19.9911 7.14092 19.9911 5.33742 18.8712 4.22576C17.7513 3.11409 15.9366 3.11402 14.8167 4.22576L14.7867 4.25953L14.7849 4.25825L13.7713 5.26437L5.66062 13.3177C3.98088 14.9856 3.98088 17.6896 5.66062 19.3574C7.34037 21.0253 10.0638 21.0253 11.7422 19.3574L18.8388 12.3109L19.8524 11.3048L20.866 12.3109L19.8524 13.3177L12.7571 20.3642C12.7571 20.3641 12.7559 20.3629 12.7559 20.3629Z" fill="#9088D4"/>
</svg>
