<svg width="24" height="24" viewBox="0 0 24 24" fill="none" xmlns="http://www.w3.org/2000/svg">
<path d="M11.25 13.2222H12.75C13.17 13.2222 13.5 12.8922 13.5 12.4722C13.5 12.0522 13.17 11.7222 12.75 11.7222H11.25C10.83 11.7222 10.5 12.0522 10.5 12.4722C10.5 12.8922 10.83 13.2222 11.25 13.2222ZM11.25 16.2222H12.75C13.17 16.2222 13.5 15.8922 13.5 15.4722C13.5 15.0522 13.17 14.7222 12.75 14.7222H11.25C10.83 14.7222 10.5 15.0522 10.5 15.4722C10.5 15.8922 10.83 16.2222 11.25 16.2222ZM19.5 2.72223H16.5V1.97223C16.5 1.55223 16.17 1.22223 15.75 1.22223C15.33 1.22223 15 1.55223 15 1.97223V2.72223H9V1.97223C9 1.55223 8.67 1.22223 8.25 1.22223C7.83 1.22223 7.5 1.55223 7.5 1.97223V2.72223H4.5C2.85 2.72223 1.5 4.07223 1.5 5.72223V17.7222C1.5 19.3722 2.85 20.7222 4.5 20.7222H19.5C21.15 20.7222 22.5 19.3722 22.5 17.7222V5.72223C22.5 4.07223 21.15 2.72223 19.5 2.72223ZM21 17.7222C21 18.5472 20.325 19.2222 19.5 19.2222H4.5C3.675 19.2222 3 18.5472 3 17.7222V8.72223H21V17.7222ZM21 7.22223H3V5.72223C3 4.89723 3.675 4.22223 4.5 4.22223H7.5V4.97223C7.5 5.39223 7.83 5.72223 8.25 5.72223C8.67 5.72223 9 5.39223 9 4.97223V4.22223H15V4.97223C15 5.39223 15.33 5.72223 15.75 5.72223C16.17 5.72223 16.5 5.39223 16.5 4.97223V4.22223H19.5C20.325 4.22223 21 4.89723 21 5.72223V7.22223ZM6.75 16.2222H8.25C8.67 16.2222 9 15.8922 9 15.4722C9 15.0522 8.67 14.7222 8.25 14.7222H6.75C6.33 14.7222 6 15.0522 6 15.4722C6 15.8922 6.33 16.2222 6.75 16.2222ZM15.75 13.2222H17.25C17.67 13.2222 18 12.8922 18 12.4722C18 12.0522 17.67 11.7222 17.25 11.7222H15.75C15.33 11.7222 15 12.0522 15 12.4722C15 12.8922 15.33 13.2222 15.75 13.2222ZM6.75 13.2222H8.25C8.67 13.2222 9 12.8922 9 12.4722C9 12.0522 8.67 11.7222 8.25 11.7222H6.75C6.33 11.7222 6 12.0522 6 12.4722C6 12.8922 6.33 13.2222 6.75 13.2222ZM15.75 16.2222H17.25C17.67 16.2222 18 15.8922 18 15.4722C18 15.0522 17.67 14.7222 17.25 14.7222H15.75C15.33 14.7222 15 15.0522 15 15.4722C15 15.8922 15.33 16.2222 15.75 16.2222Z" fill="#9088D4"/>
</svg>
