<svg
  width="24"
  height="24"
  viewBox="0 0 24 24"
  xmlns="http://www.w3.org/2000/svg"
>
  <path
    fill-rule="evenodd"
    clip-rule="evenodd"
    d="M4.92903 3.51473C4.53851 3.1242 3.90534 3.1242 3.51482 3.51473C3.12429 3.90525 3.12429 4.53842 3.51482 4.92894L10.586 12.0001L3.51496 19.0711C3.12443 19.4616 3.12443 20.0948 3.51496 20.4853C3.90548 20.8758 4.53865 20.8758 4.92917 20.4853L12.0002 13.4143L19.0712 20.4853C19.4617 20.8758 20.0949 20.8758 20.4854 20.4853C20.8759 20.0948 20.8759 19.4616 20.4854 19.0711L13.4144 12.0001L20.4855 4.92894C20.876 4.53842 20.876 3.90525 20.4855 3.51473C20.095 3.1242 19.4618 3.1242 19.0713 3.51473L12.0002 10.5859L4.92903 3.51473Z"
  />
</svg>