<svg
  width="24"
  height="24"
  viewBox="0 0 24 24"
  xmlns="http://www.w3.org/2000/svg"
>
  <path
    d="M13.8477 4.42461L13.173 5.09922L18.9008 10.827L20.25 9.47773L14.5223 3.75L13.173 5.09922L13.8477 4.42461L13.173 5.09922L18.9008 10.827L20.25 9.47773L14.5223 3.75L13.173 5.09922L13.8477 4.42461ZM21.7668 5.65781L21.0922 6.33242L21.0965 6.32812H21.0879L21.0922 6.33242L21.0965 6.32812H21.0879L21.0836 6.33672L8.57539 18.8492L3.78008 20.2199L5.15078 15.4289L17.6633 2.91641L17.6719 2.91211V2.90352L17.6676 2.90781H17.6719V2.89922L17.6676 2.90352L21.0922 6.32812L21.7668 5.65781L22.4414 4.9832L18.9781 1.51992L19.0168 1.55859C18.6473 1.18906 18.1531 1 17.6719 1C17.1777 1 16.6836 1.19336 16.3098 1.56719L3.44922 14.4277L1 23L9.57227 20.5508L22.4844 7.63867L22.4328 7.69023C22.8066 7.31641 23 6.82227 22.9957 6.33242C22.9957 5.84687 22.8066 5.35703 22.4371 4.9875L21.7668 5.65781ZM2.67148 19.4207L4.5793 21.3285L5.92852 19.9793L4.0207 18.0715L2.67148 19.4207ZM7.84063 17.5129L15.4805 9.87305L14.1313 8.52383L6.49141 16.1594L7.84063 17.5129Z"
  />
</svg>