<svg
  width="10"
  height="10"
  viewBox="0 0 10 10"
  xmlns="http://www.w3.org/2000/svg"
>
  <g clip-path="url(#clip0_187_3)">
    <path
      fill-rule="evenodd"
      clip-rule="evenodd"
      d="M0.757439 7.82844C0.366915 8.21896 0.366915 8.85213 0.75744 9.24265C1.14796 9.63318 1.78113 9.63318 2.17165 9.24265L5.00001 6.41429L7.82836 9.24264C8.21888 9.63317 8.85205 9.63317 9.24257 9.24264C9.63309 8.85212 9.63309 8.21895 9.24257 7.82843L6.41422 5.00008L9.24272 2.17158C9.63324 1.78106 9.63324 1.14789 9.24272 0.757369C8.8522 0.366845 8.21903 0.366844 7.82851 0.757369L5.00001 3.58587L2.1715 0.75736C1.78098 0.366836 1.14781 0.366836 0.757288 0.75736C0.366764 1.14788 0.366764 1.78105 0.757289 2.17157L3.5858 5.00008L0.757439 7.82844Z"
    />
  </g>
  <defs>
    <clipPath id="clip0_187_3">
      <rect
        width="10"
        height="10"
        fill="white"
      />
    </clipPath>
  </defs>
</svg>