<svg
  width="24"
  height="24"
  viewBox="0 0 24 24"
  xmlns="http://www.w3.org/2000/svg"
>
  <path
    d="M9.50119 9.523V17.2373C9.50119 17.3623 9.46101 17.465 9.38065 17.5453C9.30029 17.6257 9.19761 17.6659 9.07261 17.6659H8.21547C8.09047 17.6659 7.98779 17.6257 7.90744 17.5453C7.82708 17.465 7.7869 17.3623 7.7869 17.2373V9.523C7.7869 9.398 7.82708 9.29533 7.90744 9.21497C7.98779 9.13461 8.09047 9.09443 8.21547 9.09443H9.07261C9.19761 9.09443 9.30029 9.13461 9.38065 9.21497C9.46101 9.29533 9.50119 9.398 9.50119 9.523ZM12.9298 9.523V17.2373C12.9298 17.3623 12.8896 17.465 12.8092 17.5453C12.7289 17.6257 12.6262 17.6659 12.5012 17.6659H11.644C11.519 17.6659 11.4164 17.6257 11.336 17.5453C11.2557 17.465 11.2155 17.3623 11.2155 17.2373V9.523C11.2155 9.398 11.2557 9.29533 11.336 9.21497C11.4164 9.13461 11.519 9.09443 11.644 9.09443H12.5012C12.6262 9.09443 12.7289 9.13461 12.8092 9.21497C12.8896 9.29533 12.9298 9.398 12.9298 9.523ZM16.3583 9.523V17.2373C16.3583 17.3623 16.3182 17.465 16.2378 17.5453C16.1574 17.6257 16.0548 17.6659 15.9298 17.6659H15.0726C14.9476 17.6659 14.8449 17.6257 14.7646 17.5453C14.6842 17.465 14.644 17.3623 14.644 17.2373V9.523C14.644 9.398 14.6842 9.29533 14.7646 9.21497C14.8449 9.13461 14.9476 9.09443 15.0726 9.09443H15.9298C16.0548 9.09443 16.1574 9.13461 16.2378 9.21497C16.3182 9.29533 16.3583 9.398 16.3583 9.523ZM18.0726 19.2194V6.523H6.07261V19.2194C6.07261 19.4159 6.10386 19.5967 6.16636 19.7618C6.22886 19.927 6.2936 20.0476 6.36056 20.1235C6.42753 20.1993 6.4744 20.2373 6.50119 20.2373H17.644C17.6708 20.2373 17.7177 20.1993 17.7847 20.1235C17.8516 20.0476 17.9164 19.927 17.9789 19.7618C18.0414 19.5967 18.0726 19.4159 18.0726 19.2194ZM9.07261 4.80872H15.0726L14.4298 3.24175C14.3673 3.1614 14.2914 3.11229 14.2021 3.09443H9.95654C9.86726 3.11229 9.79136 3.1614 9.72886 3.24175L9.07261 4.80872ZM21.5012 5.23729V6.09443C21.5012 6.21943 21.461 6.32211 21.3806 6.40247C21.3003 6.48283 21.1976 6.523 21.0726 6.523H19.7869V19.2194C19.7869 19.9605 19.5771 20.6011 19.1574 21.1413C18.7378 21.6815 18.2333 21.9516 17.644 21.9516H6.50119C5.9119 21.9516 5.40744 21.6904 4.98779 21.1681C4.56815 20.6458 4.35833 20.0141 4.35833 19.273V6.523H3.07261C2.94761 6.523 2.84494 6.48283 2.76458 6.40247C2.68422 6.32211 2.64404 6.21943 2.64404 6.09443V5.23729C2.64404 5.11229 2.68422 5.00961 2.76458 4.92925C2.84494 4.8489 2.94761 4.80872 3.07261 4.80872H7.21101L8.14851 2.57211C8.28244 2.24175 8.52351 1.9605 8.87172 1.72836C9.21994 1.49622 9.57261 1.38015 9.92976 1.38015H14.2155C14.5726 1.38015 14.9253 1.49622 15.2735 1.72836C15.6217 1.9605 15.8628 2.24175 15.9967 2.57211L16.9342 4.80872H21.0726C21.1976 4.80872 21.3003 4.8489 21.3806 4.92925C21.461 5.00961 21.5012 5.11229 21.5012 5.23729Z"
  />
</svg>